<svg width="338" height="339" viewBox="0 0 338 339" fill="none" xmlns="http://www.w3.org/2000/svg">
<g clip-path="url(#clip0_308_1152)">
<path d="M336.061 131.52C336.451 131.686 336.686 131.679 336.858 132.094C337.253 133.04 337.521 205.114 336.963 207.299C334.906 209.157 326.641 210.945 323.496 211.712C309.083 215.224 295.236 221.317 282.496 228.994C247.206 250.234 221.663 284.476 211.364 324.359C210.633 327.146 209.385 330.441 208.84 333.146L208.663 336.846C206.859 337.066 205.05 337.091 203.233 337.076C182.502 336.909 161.775 336.846 141.044 337.041C138.967 337.059 135.109 337.069 133.137 336.731C131.949 335.724 131.974 333.449 131.797 331.841C132.84 329.974 135.663 312.774 136.741 308.861C138.596 302.129 140.289 295.459 142.68 288.574C147.464 274.594 153.558 261.099 160.881 248.264C163.485 243.681 167.783 237.702 169.989 233.479L170.084 233.293L170.341 233.212C171.621 230.798 173.497 228.965 174.909 226.758C177.316 222.84 180.001 219.511 183.038 216.066C186.444 212.202 189.722 208.785 192.897 204.682C194.945 202.037 198.702 198.98 200.904 196.297C202.651 194.167 204.452 192.427 206.822 191.064C210.601 188.617 213.941 184.801 217.436 182.174C222.786 178.152 229.139 172.999 234.833 169.558L234.75 168.889C236.017 168.512 246.848 161.649 249.173 160.364C258.836 155 268.826 150.245 279.083 146.128C291.921 141.212 305.138 137.357 318.606 134.604C323.556 133.59 331.616 133.022 336.061 131.52Z" fill="url(#paint0_linear_308_1152)"/>
<path d="M336.061 205.454C336.451 205.287 336.686 205.295 336.858 204.88C337.253 203.934 337.521 131.86 336.963 129.675C334.906 127.817 326.641 126.028 323.496 125.262C309.083 121.75 295.236 115.656 282.496 107.98C247.206 86.7398 221.663 52.4973 211.364 12.6148C210.633 9.82731 209.385 6.5323 208.84 3.8273L208.663 0.127289C206.859 -0.0927112 205.05 -0.117692 203.233 -0.102692C182.502 0.0648084 161.775 0.127312 141.044 -0.067688C138.967 -0.085188 135.109 -0.0951904 133.137 0.24231C131.949 1.24981 131.974 3.52479 131.797 5.13229C132.84 6.99979 135.663 24.1998 136.741 28.1123C138.596 34.8448 140.289 41.5148 142.68 48.3998C147.464 62.3798 153.558 75.8748 160.881 88.7093C163.485 93.2928 167.783 99.2718 169.989 103.494L170.084 103.68L170.341 103.762C171.621 106.176 173.497 108.009 174.909 110.216C177.316 114.133 180.001 117.463 183.038 120.908C186.444 124.772 189.722 128.189 192.897 132.291C194.945 134.937 198.702 137.994 200.904 140.677C202.651 142.807 204.452 144.547 206.822 145.91C210.601 148.357 213.941 152.173 217.436 154.8C222.786 158.822 229.139 163.974 234.833 167.416L234.75 168.085C236.017 168.462 246.848 175.325 249.173 176.61C258.836 181.974 268.826 186.729 279.083 190.846C291.921 195.762 305.138 199.616 318.606 202.37C323.556 203.384 331.616 203.952 336.061 205.454Z" fill="#FB4B43"/>
<path d="M2.36124 205.454C1.97124 205.287 1.73625 205.295 1.56375 204.88C1.16875 203.934 0.901245 131.86 1.45874 129.675C3.51624 127.817 11.7812 126.028 14.9262 125.262C29.3387 121.75 43.1862 115.656 55.9262 107.98C91.2162 86.7398 116.759 52.4973 127.057 12.6148C127.789 9.8273 129.037 6.5323 129.582 3.8273L129.759 0.127289C131.563 -0.0927124 133.372 -0.117691 135.189 -0.102692C155.92 0.0648041 176.647 0.127319 197.378 -0.067688C199.455 -0.0851898 203.313 -0.0951843 205.285 0.24231C206.473 1.24982 206.448 3.5248 206.625 5.13229C205.582 6.99979 202.758 24.1998 201.681 28.1123C199.826 34.8448 198.133 41.5148 195.742 48.3998C190.958 62.3798 184.864 75.8748 177.541 88.7093C174.937 93.2928 170.638 99.2718 168.433 103.494L168.338 103.68L168.081 103.762C166.801 106.176 164.925 108.009 163.512 110.216C161.106 114.133 158.421 117.463 155.384 120.908C151.978 124.772 148.7 128.189 145.525 132.291C143.477 134.937 139.72 137.994 137.518 140.677C135.771 142.807 133.969 144.547 131.6 145.91C127.821 148.357 124.481 152.173 120.986 154.8C115.636 158.822 109.283 163.974 103.589 167.416L103.672 168.085C102.405 168.462 91.5742 175.325 89.249 176.61C79.5862 181.974 69.5963 186.729 59.3387 190.846C46.5013 195.762 33.2838 199.616 19.8163 202.37C14.8663 203.384 6.80624 203.952 2.36124 205.454Z" fill="url(#paint1_linear_308_1152)"/>
<path d="M2.36124 133.334C1.97124 133.5 1.73625 133.492 1.56375 133.907C1.16875 134.853 0.901245 206.928 1.45874 209.113C3.51624 210.97 11.7812 212.759 14.9262 213.525C29.3387 217.038 43.1862 223.131 55.9262 230.807C91.2162 252.048 116.759 286.29 127.057 326.173C127.789 328.96 129.037 332.255 129.582 334.96L129.759 338.66C131.563 338.88 133.372 338.905 135.189 338.89C155.92 338.723 176.647 338.66 197.378 338.855C199.455 338.873 203.313 338.883 205.285 338.545C206.473 337.538 206.448 335.263 206.625 333.655C205.582 331.788 202.758 314.588 201.681 310.675C199.826 303.943 198.133 297.273 195.742 290.388C190.958 276.408 184.864 262.913 177.541 250.078C174.937 245.495 170.638 239.516 168.433 235.293L168.338 235.107L168.081 235.026C166.801 232.612 164.925 230.778 163.512 228.572C161.106 224.654 158.421 221.325 155.384 217.879C151.978 214.015 148.7 210.599 145.525 206.496C143.477 203.851 139.72 200.794 137.518 198.11C135.771 195.98 133.969 194.241 131.6 192.877C127.821 190.431 124.481 186.615 120.986 183.987C115.636 179.965 109.283 174.813 103.589 171.372L103.672 170.703C102.405 170.325 91.5742 163.463 89.249 162.178C79.5862 156.813 69.5963 152.059 59.3387 147.942C46.5013 143.025 33.2838 139.171 19.8163 136.418C14.8663 135.404 6.80624 134.836 2.36124 133.334Z" fill="url(#paint2_linear_308_1152)"/>
<path d="M335.824 265.042C335.957 265.1 336.267 265.432 336.262 265.49C336.152 267.622 336.047 274.11 336.047 275.875L335.902 324.375C335.904 328.54 335.749 332.995 335.807 337.097C317.417 336.75 298.882 337.227 280.479 337.055C275.769 337.01 270.812 336.985 266.117 337.17C265.214 337.1 264.789 337.167 264.254 336.64C264.007 334.025 269.599 321.252 271.029 318.395C280.974 298.7 296.929 282.677 316.584 272.655C323.344 269.25 328.787 267.372 335.824 265.042Z" fill="url(#paint3_linear_308_1152)"/>
</g>
<defs>
<linearGradient id="paint0_linear_308_1152" x1="104" y1="359.474" x2="293" y2="182.974" gradientUnits="userSpaceOnUse">
<stop offset="0.0146952" stop-color="#C9C993"/>
<stop offset="1" stop-color="white"/>
</linearGradient>
<linearGradient id="paint1_linear_308_1152" x1="1.68404" y1="223.798" x2="168" y2="-24.9999" gradientUnits="userSpaceOnUse">
<stop stop-color="#F5D119"/>
<stop offset="1" stop-color="#FFF2B2"/>
</linearGradient>
<linearGradient id="paint2_linear_308_1152" x1="26.5" y1="168" x2="187" y2="365.5" gradientUnits="userSpaceOnUse">
<stop stop-color="#CED1FF"/>
<stop offset="1" stop-color="#343883"/>
</linearGradient>
<linearGradient id="paint3_linear_308_1152" x1="270.937" y1="264.053" x2="342.833" y2="340.536" gradientUnits="userSpaceOnUse">
<stop stop-color="#F5D119"/>
<stop offset="1" stop-color="#FFF2B2"/>
</linearGradient>
<clipPath id="clip0_308_1152">
<rect width="338" height="339" fill="white"/>
</clipPath>
</defs>
</svg>
