<svg width="477" height="135" viewBox="0 0 477 135" fill="none" xmlns="http://www.w3.org/2000/svg">
<path d="M146.551 38.2939C151.798 47.6547 154.79 58.45 154.79 69.9443C154.79 105.745 125.768 134.768 89.9668 134.768C57.1343 134.767 30.0037 110.358 25.7305 78.6963C45.9291 69.3131 72.4377 72.4769 79.3525 110.738H101.146C111.451 66.3453 124.454 48.9298 146.551 38.2939ZM26.8818 54.9736C25.7457 59.7792 25.1436 64.7916 25.1436 69.9443C25.1436 72.9124 25.3442 75.834 25.7305 78.6963C21.4438 80.6877 17.4413 83.2444 13.9707 86.1504L0 70.5039C7.80694 63.0429 17.093 57.7871 26.8818 54.9736ZM89.9668 5.12109C106.058 5.12111 120.78 10.9849 132.112 20.6914L131.882 20.7686C108.859 35.9249 98.9112 49.827 88.8525 74.9736C72.8375 54.5234 48.6191 48.7254 26.8818 54.9727C33.6396 26.39 59.3192 5.12132 89.9668 5.12109Z" fill="url(#paint0_linear_298_3125)"/>
<path d="M145.114 15.1701L147.203 16.6173C150.901 19.1667 153.509 23.0096 154.513 27.3876L155.274 30.7252C155.372 31.1311 155.583 31.5005 155.884 31.7898C156.185 32.0791 156.563 32.276 156.972 32.3572C157.381 32.4384 157.806 32.4005 158.194 32.248C158.583 32.0955 158.919 31.8348 159.164 31.4968L161.027 28.8561C163.697 25.1017 167.706 22.5144 172.227 21.6271L174.897 21.0946C175.309 21.0204 175.69 20.8237 175.988 20.5302C176.287 20.2367 176.49 19.8601 176.572 19.4493C176.653 19.0386 176.609 18.6129 176.445 18.2276C176.281 17.8423 176.005 17.5154 175.652 17.2895L173.391 15.7788C169.55 13.2347 166.831 9.31445 165.794 4.82555L165.077 1.66885C164.979 1.26399 164.767 0.895636 164.466 0.607296C164.165 0.318956 163.789 0.122673 163.38 0.0416243C162.971 -0.0394244 162.548 -0.00185308 162.16 0.149903C161.772 0.30166 161.436 0.561262 161.191 0.898051L159.216 3.69719C156.616 7.35953 152.737 9.91418 148.346 10.8571L145.862 11.3973C144.046 11.7927 143.587 14.1072 145.114 15.1701Z" fill="#FB4B43"/>
<path d="M461.052 114.61V24.7588H476.757V114.61H461.052Z" fill="white"/>
<path d="M398.237 61.4456C399.095 60.0725 400.211 58.6565 401.584 57.1976C403.043 55.6529 404.802 54.2798 406.862 53.0784C408.921 51.7911 411.238 50.7613 413.813 49.9889C416.473 49.1307 419.434 48.7017 422.695 48.7017C426.471 48.7017 429.99 49.3024 433.251 50.5038C436.597 51.7053 439.472 53.5504 441.875 56.0391C444.364 58.442 446.295 61.4885 447.668 65.1786C449.127 68.783 449.856 73.0309 449.856 77.9225V114.61H434.538V96.3304C433.336 102.767 430.934 107.787 427.329 111.391C423.811 114.91 419.219 116.669 413.555 116.669C410.466 116.669 407.677 116.154 405.188 115.124C402.7 114.095 400.554 112.679 398.752 110.876C397.036 109.074 395.705 106.929 394.761 104.44C393.817 101.951 393.345 99.2482 393.345 96.3304C393.345 93.241 393.903 90.4519 395.019 87.9632C396.22 85.3887 397.851 83.2003 399.91 81.3982C402.056 79.596 404.63 78.2229 407.634 77.2789C410.723 76.2491 414.156 75.7342 417.932 75.7342H434.409C434.066 71.0142 432.736 67.5386 430.419 65.3074C428.187 62.9903 425.398 61.8317 422.051 61.8317C419.048 61.8317 416.516 62.5612 414.457 64.0201C412.483 65.479 410.852 67.1095 409.565 68.9117L398.237 61.4456ZM419.992 101.737C422.051 101.737 423.939 101.351 425.656 100.578C427.458 99.7202 429.003 98.6046 430.29 97.2315C431.577 95.7726 432.607 94.0133 433.379 91.9537C434.152 89.8941 434.538 87.6628 434.538 85.2599V82.0418H424.755C419.348 82.0418 415.358 83.0287 412.783 85.0025C410.294 86.9763 409.05 89.465 409.05 92.4686C409.05 95.4722 410.166 97.7893 412.397 99.4198C414.628 100.965 417.16 101.737 419.992 101.737Z" fill="white"/>
<path d="M384.479 24.7588V114.61H368.774V95.687C367.401 102.209 364.87 107.358 361.179 111.134C357.489 114.824 352.898 116.669 347.406 116.669C343.887 116.669 340.669 115.897 337.751 114.352C334.919 112.722 332.473 110.448 330.414 107.53C328.354 104.526 326.767 100.922 325.651 96.7168C324.535 92.4259 323.978 87.6631 323.978 82.4282C323.978 71.9585 326.08 63.72 330.285 57.7127C334.576 51.7055 340.455 48.7019 347.921 48.7019C353.156 48.7019 357.575 50.3753 361.179 53.7222C364.87 56.9833 367.401 62.1752 368.774 69.2981V24.7588H384.479ZM354.228 101.737C358.433 101.737 361.866 100.278 364.526 97.3605C367.273 94.3568 368.688 90.4092 368.774 85.5176V80.626C368.688 75.6486 367.315 71.5723 364.655 68.397C361.995 65.2218 358.433 63.6341 353.971 63.6341C349.594 63.6341 346.118 65.3076 343.544 68.6545C340.969 71.9155 339.682 76.5926 339.682 82.6856C339.682 88.8645 341.012 93.5845 343.673 96.8455C346.333 100.107 349.852 101.737 354.228 101.737Z" fill="white"/>
<path d="M263.351 61.4456C264.209 60.0725 265.325 58.6565 266.698 57.1976C268.157 55.6529 269.916 54.2798 271.976 53.0784C274.035 51.7911 276.352 50.7613 278.927 49.9889C281.587 49.1307 284.548 48.7017 287.809 48.7017C291.585 48.7017 295.103 49.3024 298.365 50.5038C301.711 51.7053 304.586 53.5504 306.989 56.0391C309.478 58.442 311.409 61.4885 312.782 65.1786C314.241 68.783 314.97 73.0309 314.97 77.9225V114.61H299.652V96.3304C298.45 102.767 296.047 107.787 292.443 111.391C288.925 114.91 284.333 116.669 278.669 116.669C275.58 116.669 272.791 116.154 270.302 115.124C267.813 114.095 265.668 112.679 263.866 110.876C262.15 109.074 260.819 106.929 259.875 104.44C258.931 101.951 258.459 99.2482 258.459 96.3304C258.459 93.241 259.017 90.4519 260.133 87.9632C261.334 85.3887 262.965 83.2003 265.024 81.3982C267.17 79.596 269.744 78.2229 272.748 77.2789C275.837 76.2491 279.27 75.7342 283.046 75.7342H299.523C299.18 71.0142 297.85 67.5386 295.533 65.3074C293.301 62.9903 290.512 61.8317 287.165 61.8317C284.162 61.8317 281.63 62.5612 279.57 64.0201C277.597 65.479 275.966 67.1095 274.679 68.9117L263.351 61.4456ZM285.106 101.737C287.165 101.737 289.053 101.351 290.77 100.578C292.572 99.7202 294.117 98.6046 295.404 97.2315C296.691 95.7726 297.721 94.0133 298.493 91.9537C299.266 89.8941 299.652 87.6628 299.652 85.2599V82.0418H289.869C284.462 82.0418 280.472 83.0287 277.897 85.0025C275.408 86.9763 274.164 89.465 274.164 92.4686C274.164 95.4722 275.28 97.7893 277.511 99.4198C279.742 100.965 282.274 101.737 285.106 101.737Z" fill="white"/>
<path d="M232.624 114.61H215.375L190.016 50.7612H206.75L224 95.6867L241.249 50.7612H257.983L232.624 114.61Z" fill="white"/>
<defs>
<linearGradient id="paint0_linear_298_3125" x1="76.9194" y1="-7.23242" x2="77.395" y2="134.768" gradientUnits="userSpaceOnUse">
<stop stop-color="#8DA2FF"/>
<stop offset="0.553073" stop-color="#5367EB"/>
<stop offset="1" stop-color="#5266EB"/>
</linearGradient>
</defs>
</svg>
