<svg width="415" height="482" viewBox="0 0 415 482" fill="none" xmlns="http://www.w3.org/2000/svg">
<path d="M248.974 308.156L266.865 308.127C279.592 308.115 290.106 307.864 297.518 320.475C301.004 326.301 301.991 333.29 300.254 339.853C298.828 345.301 290.661 358.662 287.333 364.641L258.928 415.32L237.343 453.911C234.307 459.279 231.286 465.333 227.95 470.458C221.983 479.623 209.994 483.251 199.736 480.253C190.797 477.644 186.907 471.768 182.652 464.24L134.979 379.237L122.134 356.29C119.719 351.973 117.202 347.693 115.113 343.226C110.628 333.769 113.533 322.749 120.645 315.477C128.729 307.209 136.978 308.153 147.553 308.158L169.087 308.176L248.974 308.156Z" fill="url(#paint0_linear_311_64)"/>
<path d="M248.109 107.541C254.234 106.978 265.359 107.353 271.928 107.354L316.697 107.353L364.761 107.338C373.471 107.322 382.395 107.154 390.946 107.464C404.323 108.127 414.335 119.641 414.219 132.814C414.147 141.163 409.873 146.938 405.925 154.033L394.854 173.761L355.699 243.674C351.078 251.858 346.66 260.042 341.837 268.191C334.506 280.571 318.339 284.083 306.318 276.389C299.302 271.902 295.842 263.046 291.738 255.973C283.744 241.887 275.824 227.759 267.974 213.592L242.643 168.457C238.103 160.365 233.245 152.206 229.048 143.952C220.869 127.868 230.867 110.543 248.109 107.541Z" fill="url(#paint1_linear_311_64)"/>
<path d="M23.7779 107.568C28.2908 107.092 40.0821 107.415 44.9936 107.422L86.7546 107.434L138.867 107.414C147.774 107.404 156.915 107.288 165.813 107.511C168.971 107.59 172.512 108.941 175.244 110.509C181.003 113.816 185.216 119.273 186.959 125.681C187.886 129.153 188.331 135.581 187.131 138.976C184.506 146.399 179.617 153.89 175.772 160.795C172.657 166.387 169.568 171.912 166.449 177.458L141.912 221.177C137.615 228.887 133.466 236.696 129.073 244.349C125.951 249.39 122.862 255.546 119.822 260.743C117.861 264.292 116.12 267.827 113.647 271.074C105.872 281.275 88.744 283.534 78.7204 275.477C72.6992 270.635 69.4233 262.656 65.5112 256.042C57.9636 243.284 51.0722 230.023 43.7402 217.139L15.0031 165.873C10.9618 158.561 6.65979 151.383 2.8297 143.97C-1.86997 134.874 -0.648874 124.072 5.99571 116.266C10.9846 110.406 16.3272 108.298 23.7779 107.568Z" fill="url(#paint2_linear_311_64)"/>
<rect x="171.109" y="204.585" width="72" height="72" rx="36" fill="url(#paint3_linear_311_64)"/>
<rect x="284.252" y="4.56445" width="72" height="72" rx="36" fill="url(#paint4_linear_311_64)"/>
<rect x="57.4316" width="72" height="72" rx="36" fill="url(#paint5_linear_311_64)"/>
<defs>
<linearGradient id="paint0_linear_311_64" x1="341.961" y1="277.758" x2="168.637" y2="483.785" gradientUnits="userSpaceOnUse">
<stop stop-color="#00A165"/>
<stop offset="1" stop-color="#C5F2C9"/>
</linearGradient>
<linearGradient id="paint1_linear_311_64" x1="413.965" y1="126.995" x2="103.445" y2="347.281" gradientUnits="userSpaceOnUse">
<stop stop-color="#FF9C30"/>
<stop offset="1" stop-color="#FEDEBA"/>
</linearGradient>
<linearGradient id="paint2_linear_311_64" x1="37.5976" y1="280.438" x2="138.686" y2="158.906" gradientUnits="userSpaceOnUse">
<stop stop-color="#4D67F3"/>
<stop offset="1" stop-color="#9AAAFF"/>
</linearGradient>
<linearGradient id="paint3_linear_311_64" x1="258.751" y1="191.959" x2="185.899" y2="271.671" gradientUnits="userSpaceOnUse">
<stop stop-color="#00A165"/>
<stop offset="1" stop-color="#C5F2C9"/>
</linearGradient>
<linearGradient id="paint4_linear_311_64" x1="356.154" y1="12.7794" x2="230.917" y2="94.6082" gradientUnits="userSpaceOnUse">
<stop stop-color="#FF9C30"/>
<stop offset="1" stop-color="#FEDEBA"/>
</linearGradient>
<linearGradient id="paint5_linear_311_64" x1="71.8415" y1="72.0372" x2="114.397" y2="24.9112" gradientUnits="userSpaceOnUse">
<stop stop-color="#4D67F3"/>
<stop offset="1" stop-color="#9AAAFF"/>
</linearGradient>
</defs>
</svg>
