<svg width="353" height="333" viewBox="0 0 353 333" fill="none" xmlns="http://www.w3.org/2000/svg">
<rect width="352.097" height="333" fill="#111111"/>
<path d="M157.67 162.607L148.372 158.566C141.571 155.593 141.571 146.18 148.372 143.224L157.67 139.182C174.121 132.085 187.315 119.079 194.647 102.731C195.218 101.447 194.278 100 192.873 100H117.385C107.44 100 102.468 100 100.612 103.228C98.7561 106.456 101.257 110.753 106.259 119.348L164.986 220.256C169.93 228.751 172.402 232.998 176.1 233C179.799 233.002 182.276 228.758 187.23 220.269L194.122 208.459C195.096 206.79 195.583 205.956 195.806 205.063C196.004 204.269 196.048 203.444 195.937 202.633C195.813 201.722 195.419 200.839 194.631 199.075C187.305 182.724 174.118 169.712 157.67 162.607Z" fill="#FFB000"/>
<path d="M237.823 100H222.584C221.533 100 220.831 101.082 221.259 102.041C223.961 108.048 227.453 113.601 231.604 118.575C234.361 121.879 235.739 123.531 237.971 123.974C239.049 124.187 240.505 124.062 241.531 123.668C243.655 122.852 244.882 120.732 247.335 116.49C250.803 110.493 252.538 107.495 252 105.053C251.716 103.758 251.037 102.582 250.059 101.687C248.214 100 244.751 100 237.823 100Z" fill="#FFB000"/>
<path d="M184.555 154.188L188.241 155.79C194.761 158.607 199.989 163.765 202.893 170.247L205.101 175.19C205.377 175.79 205.819 176.298 206.374 176.654C206.93 177.01 207.576 177.199 208.236 177.199C208.897 177.199 209.543 177.01 210.098 176.654C210.654 176.298 211.096 175.79 211.372 175.19L213.45 170.521C216.436 163.876 221.858 158.629 228.597 155.862L232.576 154.214C233.192 153.972 233.722 153.55 234.095 153.003C234.468 152.456 234.667 151.809 234.667 151.147C234.667 150.485 234.468 149.838 234.095 149.291C233.722 148.744 233.192 148.322 232.576 148.08L228.604 146.432C221.863 143.668 216.439 138.423 213.45 131.779L211.366 127.104C211.089 126.506 210.647 126 210.092 125.645C209.537 125.29 208.892 125.102 208.233 125.102C207.574 125.102 206.929 125.29 206.374 125.645C205.819 126 205.377 126.506 205.101 127.104L202.9 132.053C199.993 138.534 194.762 143.69 188.241 146.504L184.555 148.106C181.859 149.278 181.859 153.009 184.555 154.188Z" fill="white"/>
</svg>
