<svg width="316" height="365" viewBox="0 0 316 365" fill="none" xmlns="http://www.w3.org/2000/svg">
<path d="M214.473 167.288C217.719 161.855 221.663 157.037 225.109 151.871C228.423 146.903 231.001 142.596 235.283 138.157C238.68 134.636 241.37 130.78 245.989 128.561C250.11 126.441 254.3 124.504 258.815 123.404C298.965 113.618 329.812 157.086 307.512 191.79C303.477 198.069 298.462 203.981 294.07 210.046L279.127 230.754C277.565 232.879 271.677 241.526 269.56 242.242C269.665 242.476 270.085 243.392 270.14 243.581C275.152 251.037 281.44 259.162 286.827 266.427C290.965 272.045 295.05 277.705 299.08 283.402C303.64 289.725 309.502 296.24 312.155 303.647C324.367 337.735 295.495 371.857 259.57 363.06C241.487 358.632 235.669 349.147 225.426 334.562C222.138 329.777 218.009 325.093 214.866 320.228C214.698 319.97 214.533 319.71 214.372 319.45L213.984 319.252C213.206 320.945 206.892 329.553 205.384 331.545C195.991 344.18 190.024 356.245 174.171 361.692C162.696 365.637 150.62 364.985 139.418 360.257C121.258 352.595 114.96 332.977 102.744 319.66L102.518 319.647C101.664 320.525 98.2791 325.492 97.2684 326.882L88.4809 338.865C83.3944 345.872 79.0826 352.645 71.5586 357.43C42.6041 375.842 2.87421 356.625 2.23388 321.612C2.15823 317.477 2.38023 313.412 3.23468 309.317C4.47118 303.392 7.35806 297.947 10.3223 292.715C11.9358 289.865 14.4223 287.555 16.3905 284.942L29.7224 267.142C32.7991 263.032 43.4896 245.988 46.9244 243.767L47.0714 242.923C41.4751 236.842 38.9939 232.559 34.4964 226.238L20.3187 206.673C11.596 194.531 4.08243 188.015 2.37412 171.742C-1.14056 138.26 28.9526 114.159 60.9974 124.44C79.7754 130.465 85.8586 145.608 97.4361 160.087C98.0774 160.889 102.219 167.208 102.38 167.333L102.662 167.102C106.011 162.025 109.996 156.857 113.468 151.838C122.933 138.156 131.908 126.674 149.215 123.095C160.409 120.781 172.004 122.475 181.79 128.655C193.074 135.781 198.298 145.86 206.194 156.262C208.927 159.863 212.054 163.44 214.121 167.37L214.473 167.288Z" fill="url(#paint0_linear_333_37)"/>
<path d="M158.411 243.352C161.179 246.211 168.138 256.225 170.781 259.86L193.146 290.497L206.858 309.15C208.771 311.75 212.544 316.63 213.984 319.253C213.206 320.945 206.892 329.553 205.384 331.545C195.99 344.18 190.024 356.245 174.171 361.693C162.696 365.638 150.619 364.985 139.417 360.258C121.258 352.595 114.96 332.978 102.744 319.66C103.326 318.5 107.039 313.555 107.943 312.318L118.881 297.367C131.968 279.447 145.131 261.105 158.411 243.352Z" fill="url(#paint1_linear_333_37)"/>
<path d="M102.662 167.102C106.012 162.025 109.997 156.857 113.468 151.838C122.933 138.156 131.908 126.674 149.215 123.095C160.41 120.781 172.005 122.476 181.791 128.656C193.075 135.782 198.298 145.86 206.194 156.262C208.928 159.863 212.054 163.44 214.122 167.37C195.205 192.07 177.136 218.385 158.365 243.354C157.409 241.447 154.965 238.336 153.606 236.477L145.025 224.756L113.504 181.589C110.919 178.035 108.309 174.5 105.675 170.983C104.91 169.96 103.204 167.952 102.662 167.102Z" fill="#88A3FF"/>
<path d="M102.662 167.102C106.012 162.025 109.997 156.857 113.468 151.838C122.933 138.156 131.908 126.674 149.215 123.095C160.41 120.781 172.005 122.476 181.791 128.656C193.075 135.782 198.298 145.86 206.194 156.262C208.928 159.863 212.054 163.44 214.122 167.37C195.205 192.07 177.136 218.385 158.365 243.354C157.409 241.447 154.965 238.336 153.606 236.477L145.025 224.756L113.504 181.589C110.919 178.035 108.309 174.5 105.675 170.983C104.91 169.96 103.204 167.952 102.662 167.102Z" fill="url(#paint2_linear_333_37)"/>
<path d="M47.0714 242.923C41.4751 236.842 38.9939 232.559 34.4964 226.238L20.3187 206.673C11.596 194.531 4.08243 188.015 2.37412 171.742C-1.14056 138.26 28.9526 114.159 60.9974 124.44C79.7754 130.465 85.8586 145.608 97.4361 160.087C98.0774 160.889 102.219 167.208 102.38 167.333C99.5774 171.916 94.5216 178.405 91.2486 182.855L72.1456 208.934L55.7489 231.393C53.5289 234.428 49.3789 240.441 47.0714 242.923Z" fill="url(#paint3_linear_333_37)"/>
<path d="M46.925 243.767C49.2322 246.358 52.2295 250.715 54.2772 253.575L63.5677 266.41L84.3472 294.73L95.259 309.622C97.7255 313.017 99.91 316.342 102.519 319.647C101.664 320.525 98.2797 325.493 97.269 326.883L88.4815 338.865C83.395 345.872 79.0832 352.645 71.5592 357.43C42.6047 375.842 2.87483 356.625 2.2345 321.612C2.15885 317.477 2.38085 313.413 3.23531 309.318C4.47181 303.393 7.35868 297.947 10.323 292.715C11.9365 289.865 14.423 287.555 16.3911 284.943L29.723 267.142C32.7997 263.032 43.4902 245.988 46.925 243.767Z" fill="url(#paint4_linear_333_37)"/>
<path d="M270.141 243.581C275.153 251.037 281.441 259.162 286.828 266.427C290.966 272.045 295.051 277.705 299.081 283.402C303.641 289.725 309.503 296.24 312.156 303.647C324.368 337.735 295.496 371.857 259.571 363.06C241.488 358.632 235.67 349.148 225.427 334.562C222.139 329.778 218.01 325.093 214.867 320.228C214.699 319.97 214.534 319.71 214.373 319.45C219.515 313.108 224.013 306.355 228.821 299.795L256.793 261.76C260.393 256.878 266.481 247.746 270.141 243.581Z" fill="url(#paint5_linear_333_37)"/>
<path d="M114.266 55.0927L121.07 58.05C133.107 63.2495 142.758 72.7716 148.118 84.7374L152.194 93.8616C152.703 94.9685 153.519 95.9063 154.545 96.5636C155.571 97.2209 156.763 97.5703 157.982 97.5703C159.2 97.5703 160.393 97.2209 161.419 96.5636C162.445 95.9063 163.261 94.9685 163.77 93.8616L167.605 85.2423C173.118 72.9757 183.126 63.2906 195.567 58.1823L202.912 55.1408C204.049 54.6941 205.026 53.915 205.715 52.905C206.403 51.8951 206.771 50.7011 206.771 49.4788C206.771 48.2565 206.403 47.0625 205.715 46.0525C205.026 45.0425 204.049 44.2634 202.912 43.8167L195.579 40.7753C183.136 35.6724 173.124 25.9916 167.605 13.7273L163.758 5.09597C163.247 3.99239 162.432 3.058 161.407 2.40313C160.382 1.74827 159.192 1.40029 157.976 1.40029C156.76 1.40029 155.569 1.74827 154.545 2.40313C153.52 3.058 152.704 3.99239 152.194 5.09597L148.13 14.2322C142.764 26.1957 133.109 35.7135 121.07 40.9076L114.266 43.8648C109.289 46.0287 109.289 52.9169 114.266 55.0927Z" fill="#88A3FF"/>
<path d="M114.266 55.0927L121.07 58.05C133.107 63.2495 142.758 72.7716 148.118 84.7374L152.194 93.8616C152.703 94.9685 153.519 95.9063 154.545 96.5636C155.571 97.2209 156.763 97.5703 157.982 97.5703C159.2 97.5703 160.393 97.2209 161.419 96.5636C162.445 95.9063 163.261 94.9685 163.77 93.8616L167.605 85.2423C173.118 72.9757 183.126 63.2906 195.567 58.1823L202.912 55.1408C204.049 54.6941 205.026 53.915 205.715 52.905C206.403 51.8951 206.771 50.7011 206.771 49.4788C206.771 48.2565 206.403 47.0625 205.715 46.0525C205.026 45.0425 204.049 44.2634 202.912 43.8167L195.579 40.7753C183.136 35.6724 173.124 25.9916 167.605 13.7273L163.758 5.09597C163.247 3.99239 162.432 3.058 161.407 2.40313C160.382 1.74827 159.192 1.40029 157.976 1.40029C156.76 1.40029 155.569 1.74827 154.545 2.40313C153.52 3.058 152.704 3.99239 152.194 5.09597L148.13 14.2322C142.764 26.1957 133.109 35.7135 121.07 40.9076L114.266 43.8648C109.289 46.0287 109.289 52.9169 114.266 55.0927Z" fill="url(#paint6_linear_333_37)"/>
<path d="M214.473 167.288C217.718 161.855 221.663 157.037 225.109 151.871C228.423 146.903 231.001 142.596 235.282 138.157C238.68 134.636 241.37 130.78 245.989 128.561C250.109 126.441 254.299 124.504 258.814 123.404C298.964 113.618 329.812 157.086 307.512 191.79C303.477 198.069 298.462 203.981 294.069 210.046L279.127 230.754C277.564 232.879 271.677 241.526 269.559 242.242C268.819 241.967 219.24 173.859 214.473 167.288Z" fill="url(#paint7_linear_333_37)"/>
<defs>
<linearGradient id="paint0_linear_333_37" x1="103" y1="170" x2="103" y2="319" gradientUnits="userSpaceOnUse">
<stop stop-color="#5A6EEE"/>
<stop offset="1" stop-color="#5698F6"/>
</linearGradient>
<linearGradient id="paint1_linear_333_37" x1="184" y1="279.5" x2="158" y2="364" gradientUnits="userSpaceOnUse">
<stop stop-color="#98DFB2"/>
<stop offset="1" stop-color="#B8FEDE"/>
</linearGradient>
<linearGradient id="paint2_linear_333_37" x1="158.05" y1="110.551" x2="158.627" y2="243.352" gradientUnits="userSpaceOnUse">
<stop stop-color="#8DA2FF"/>
<stop offset="0.553073" stop-color="#5367EB"/>
<stop offset="1" stop-color="#5266EB"/>
</linearGradient>
<linearGradient id="paint3_linear_333_37" x1="52.2369" y1="122.044" x2="52.2369" y2="242.923" gradientUnits="userSpaceOnUse">
<stop stop-color="#00A165"/>
<stop offset="1" stop-color="#C5F2C9"/>
</linearGradient>
<linearGradient id="paint4_linear_333_37" x1="52.3697" y1="243.767" x2="52.3697" y2="364.547" gradientUnits="userSpaceOnUse">
<stop stop-color="#4D67F3"/>
<stop offset="1" stop-color="#579EF7"/>
</linearGradient>
<linearGradient id="paint5_linear_333_37" x1="264.687" y1="243.581" x2="264.687" y2="364.463" gradientUnits="userSpaceOnUse">
<stop stop-color="#4D67F3"/>
<stop offset="1" stop-color="#579EF7"/>
</linearGradient>
<linearGradient id="paint6_linear_333_37" x1="215.942" y1="49.1898" x2="110.534" y2="49.6116" gradientUnits="userSpaceOnUse">
<stop stop-color="#8DA2FF"/>
<stop offset="0.553073" stop-color="#5367EB"/>
<stop offset="1" stop-color="#5266EB"/>
</linearGradient>
<linearGradient id="paint7_linear_333_37" x1="264.736" y1="122.003" x2="264.736" y2="242.242" gradientUnits="userSpaceOnUse">
<stop stop-color="#00A165"/>
<stop offset="1" stop-color="#C5F2C9"/>
</linearGradient>
</defs>
</svg>
