<svg width="180" height="138" viewBox="0 0 180 138" fill="none" xmlns="http://www.w3.org/2000/svg">
<path d="M146.551 41.4146C151.798 50.7753 154.79 61.5706 154.79 73.0649C154.79 108.866 125.768 137.888 89.9668 137.888C57.1343 137.888 30.0037 113.478 25.7305 81.8169C45.9291 72.4338 72.4377 75.5975 79.3525 113.859H101.146C111.451 69.4659 124.454 52.0504 146.551 41.4146ZM26.8818 58.0942C25.7457 62.8998 25.1436 67.9122 25.1436 73.0649C25.1436 76.033 25.3442 78.9546 25.7305 81.8169C21.4438 83.8083 17.4413 86.365 13.9707 89.271L0 73.6245C7.80694 66.1635 17.093 60.9077 26.8818 58.0942ZM89.9668 8.2417C106.058 8.24172 120.78 14.1056 132.112 23.812L131.882 23.8892C108.859 39.0455 98.9112 52.9477 88.8525 78.0942C72.8375 57.644 48.6191 51.846 26.8818 58.0933C33.6396 29.5106 59.3192 8.24192 89.9668 8.2417Z" fill="url(#paint0_linear_298_3126)"/>
<path d="M145.114 18.2907L147.203 19.7379C150.901 22.2873 153.509 26.1302 154.513 30.5082L155.274 33.8458C155.372 34.2517 155.583 34.6211 155.884 34.9104C156.185 35.1997 156.563 35.3966 156.972 35.4778C157.381 35.559 157.806 35.5211 158.194 35.3686C158.583 35.2161 158.919 34.9554 159.164 34.6174L161.027 31.9767C163.697 28.2223 167.706 25.635 172.227 24.7477L174.897 24.2152C175.309 24.141 175.69 23.9443 175.988 23.6508C176.287 23.3573 176.49 22.9807 176.572 22.5699C176.653 22.1592 176.609 21.7335 176.445 21.3482C176.281 20.9629 176.005 20.636 175.652 20.4101L173.391 18.8994C169.55 16.3553 166.831 12.4351 165.794 7.94616L165.077 4.78946C164.979 4.38459 164.767 4.01624 164.466 3.7279C164.165 3.43956 163.789 3.24328 163.38 3.16223C162.971 3.08118 162.548 3.11875 162.16 3.27051C161.772 3.42227 161.436 3.68187 161.191 4.01866L159.216 6.8178C156.616 10.4801 152.737 13.0348 148.346 13.9777L145.862 14.5179C144.046 14.9133 143.587 17.2278 145.114 18.2907Z" fill="#FB4B43"/>
<defs>
<linearGradient id="paint0_linear_298_3126" x1="76.9194" y1="-4.11182" x2="77.395" y2="137.888" gradientUnits="userSpaceOnUse">
<stop stop-color="#8DA2FF"/>
<stop offset="0.553073" stop-color="#5367EB"/>
<stop offset="1" stop-color="#5266EB"/>
</linearGradient>
</defs>
</svg>
