<svg viewBox="0 0 800 320" xmlns="http://www.w3.org/2000/svg" role="img" aria-label="Wellbeing campaign artwork">
  <defs>
    <linearGradient id="wb-bg" x1="0" y1="0" x2="1" y2="1">
      <stop offset="0" stop-color="#C7D2FE"/>
      <stop offset="0.5" stop-color="#DDD6FE"/>
      <stop offset="1" stop-color="#FBCFE8"/>
    </linearGradient>
    <radialGradient id="wb-sun" cx="0.5" cy="0.5" r="0.5">
      <stop offset="0" stop-color="#FFF7ED"/>
      <stop offset="0.6" stop-color="#FDE68A"/>
      <stop offset="1" stop-color="#FDE68A" stop-opacity="0"/>
    </radialGradient>
  </defs>
  <rect width="800" height="320" fill="url(#wb-bg)"/>
  <circle cx="615" cy="120" r="130" fill="url(#wb-sun)"/>
  <circle cx="615" cy="120" r="46" fill="#FBBF24" opacity="0.92"/>
  <path d="M-20 240 Q 160 170 360 232 T 820 214 V 340 H -20 Z" fill="#A5B4FC" opacity="0.55"/>
  <path d="M-20 268 Q 200 208 420 262 T 820 250 V 340 H -20 Z" fill="#818CF8" opacity="0.5"/>
  <path d="M-20 296 Q 220 250 460 292 T 820 286 V 340 H -20 Z" fill="#6366F1" opacity="0.5"/>
  <g fill="#5D63E1">
    <path d="M150 70 l9 19 21 3 -15 15 4 21 -19 -10 -19 10 4 -21 -15 -15 21 -3 z" opacity="0.85"/>
  </g>
  <g fill="#FFFFFF" opacity="0.9">
    <circle cx="250" cy="60" r="4"/><circle cx="300" cy="100" r="3"/><circle cx="90" cy="150" r="3"/>
  </g>
</svg>
